<svg xmlns="http://www.w3.org/2000/svg" version="1.1" xmlns:xlink="http://www.w3.org/1999/xlink" xmlns:svgjs="http://svgjs.dev/svgjs" width="560" height="768" preserveAspectRatio="none" viewBox="0 0 560 768"><g mask="url(&quot;#SvgjsMask1040&quot;)" fill="none"><rect width="560" height="768" x="0" y="0" fill="rgba(246, 90, 40, 1)"></rect><path d="M0 0L94.03 0L0 195.53z" fill="rgba(255, 255, 255, .1)"></path><path d="M0 195.53L94.03 0L305.96000000000004 0L0 233.02z" fill="rgba(255, 255, 255, .075)"></path><path d="M0 233.02L305.96000000000004 0L437.64000000000004 0L0 566.71z" fill="rgba(255, 255, 255, .05)"></path><path d="M0 566.71L437.64000000000004 0L461.93000000000006 0L0 692.48z" fill="rgba(255, 255, 255, .025)"></path><path d="M560 768L443.07 768L560 520.25z" fill="rgba(0, 0, 0, .1)"></path><path d="M560 520.25L443.07 768L414.2 768L560 434.99z" fill="rgba(0, 0, 0, .075)"></path><path d="M560 434.99L414.2 768L246.67999999999998 768L560 326.07z" fill="rgba(0, 0, 0, .05)"></path><path d="M560 326.07L246.67999999999995 768L91.04999999999995 768L560 122.06z" fill="rgba(0, 0, 0, .025)"></path></g><defs><mask id="SvgjsMask1040"><rect width="560" height="768" fill="#ffffff"></rect></mask></defs></svg>